/* XPM */
static char * 0_xpm[] = {
"32 48 15 1",
" 	c #000000",
".	c #8D8D8D",
"+	c #F4F4F4",
"@	c #FFFFFF",
"#	c #E9E9E9",
"$	c #AAAAAA",
"%	c #9C9C9C",
"&	c #6B6B6B",
"*	c #424242",
"=	c #C5C5C5",
"-	c #B8B8B8",
";	c #262626",
">	c #585858",
",	c #7D7D7D",
"'	c #DDDDDD",
"                                ",
"                                ",
"                                ",
"                                ",
"          ..++@@@@##..          ",
"          ..++@@@@##..          ",
"        $$@@@@@@@@@@@@%%        ",
"        $$@@@@@@@@@@@@%%        ",
"      &&@@@@@@##@@@@@@@@**      ",
"      &&@@@@@@##@@@@@@@@**      ",
"      ==@@@@@@%%$$@@@@@@--      ",
"      ==@@@@@@%%$$@@@@@@--      ",
"    ;;++@@@@@@>>,,@@@@@@++      ",
"    ;;++@@@@@@>>,,@@@@@@++      ",
"    >>@@@@@@@@;;>>@@@@@@@@>>    ",
"    >>@@@@@@@@;;>>@@@@@@@@>>    ",
"    ..@@@@@@@@  **@@@@@@@@,,    ",
"    ..@@@@@@@@  **@@@@@@@@,,    ",
"    %%@@@@@@++  ;;@@@@@@@@%%    ",
"    %%@@@@@@++  ;;@@@@@@@@%%    ",
"    %%@@@@@@##    @@@@@@@@%%    ",
"    %%@@@@@@##    @@@@@@@@%%    ",
"    %%@@@@@@##    @@@@@@@@%%    ",
"    %%@@@@@@##    @@@@@@@@%%    ",
"    %%@@@@@@##    @@@@@@@@%%    ",
"    %%@@@@@@##    @@@@@@@@%%    ",
"    %%@@@@@@++  ;;@@@@@@@@%%    ",
"    %%@@@@@@++  ;;@@@@@@@@%%    ",
"    ..@@@@@@@@  **@@@@@@@@..    ",
"    ..@@@@@@@@  **@@@@@@@@..    ",
"    ,,@@@@@@@@;;**@@@@@@@@&&    ",
"    ,,@@@@@@@@;;**@@@@@@@@&&    ",
"    ;;@@@@@@@@>>&&@@@@@@@@;;    ",
"    ;;@@@@@@@@>>&&@@@@@@@@;;    ",
"      ''@@@@@@..%%@@@@@@''      ",
"      ''@@@@@@..%%@@@@@@''      ",
"      %%@@@@@@####@@@@@@..      ",
"      %%@@@@@@####@@@@@@..      ",
"      ;;++@@@@@@@@@@@@##        ",
"      ;;++@@@@@@@@@@@@##        ",
"        >>++@@@@@@@@##**        ",
"        >>++@@@@@@@@##**        ",
"            %%%%%%..            ",
"            %%%%%%..            ",
"                                ",
"                                ",
"                                ",
"                                "};
