/* XPM */
static char * 5_xpm[] = {
"32 48 16 1",
" 	c #000000",
".	c #B8B8B8",
"+	c #FFFFFF",
"@	c #8D8D8D",
"#	c #D1D1D1",
"$	c #6B6B6B",
"%	c #E9E9E9",
"&	c #9C9C9C",
"*	c #262626",
"=	c #424242",
"-	c #585858",
";	c #AAAAAA",
">	c #C5C5C5",
",	c #DDDDDD",
"'	c #F4F4F4",
")	c #7D7D7D",
"                                ",
"                                ",
"                                ",
"                                ",
"                                ",
"                                ",
"      ..++++++++++++++++@@      ",
"      ..++++++++++++++++@@      ",
"      ##++++++++++++++++$$      ",
"      ##++++++++++++++++$$      ",
"      %%++++++##&&&&&&&&**      ",
"      %%++++++##&&&&&&&&**      ",
"      ++++++++@@                ",
"      ++++++++@@                ",
"    ==++++++++--                ",
"    ==++++++++--                ",
"    $$++++++++**                ",
"    $$++++++++**                ",
"    &&++++++++++++..$$          ",
"    &&++++++++++++..$$          ",
"    ;;++++++++++++++++>>        ",
"    ;;++++++++++++++++>>        ",
"    ..++++++++++++++++++;;      ",
"    ..++++++++++++++++++;;      ",
"              **,,++++++++--    ",
"              **,,++++++++--    ",
"                $$++++++++&&    ",
"                $$++++++++&&    ",
"                  ++++++++..    ",
"                  ++++++++..    ",
"                  %%++++++..    ",
"                  %%++++++..    ",
"                  ''++++++;;    ",
"                  ''++++++;;    ",
"                --++++++++))    ",
"                --++++++++))    ",
"                ;;++++++%%      ",
"                ;;++++++%%      ",
"        $$''&&..++++++''--      ",
"        $$''&&..++++++''--      ",
"        ==,,++++++++%%--        ",
"        ==,,++++++++%%--        ",
"            &&&&&&))            ",
"            &&&&&&))            ",
"                                ",
"                                ",
"                                ",
"                                "};
