/* XPM */
static char * 7_xpm[] = {
"32 48 16 1",
" 	c #000000",
".	c #8D8D8D",
"+	c #FFFFFF",
"@	c #424242",
"#	c #D1D1D1",
"$	c #E9E9E9",
"%	c #9C9C9C",
"&	c #C5C5C5",
"*	c #F4F4F4",
"=	c #262626",
"-	c #6B6B6B",
";	c #B8B8B8",
">	c #DDDDDD",
",	c #585858",
"'	c #AAAAAA",
")	c #7D7D7D",
"                                ",
"                                ",
"                                ",
"                                ",
"                                ",
"                                ",
"      ..++++++++++++++++++++@@  ",
"      ..++++++++++++++++++++@@  ",
"      ##++++++++++++++++++$$    ",
"      ##++++++++++++++++++$$    ",
"      %%%%%%%%%%&&++++++++%%    ",
"      %%%%%%%%%%&&++++++++%%    ",
"                &&++++++++@@    ",
"                &&++++++++@@    ",
"              @@++++++++##      ",
"              @@++++++++##      ",
"              %%++++++++..      ",
"              %%++++++++..      ",
"              $$++++++**==      ",
"              $$++++++**==      ",
"            --++++++++;;        ",
"            --++++++++;;        ",
"            ;;++++++++--        ",
"            ;;++++++++--        ",
"          ==**++++++$$          ",
"          ==**++++++$$          ",
"          %%++++++++%%          ",
"          %%++++++++%%          ",
"          >>++++++++==          ",
"          >>++++++++==          ",
"        ,,++++++++&&            ",
"        ,,++++++++&&            ",
"        ''++++++++))            ",
"        ''++++++++))            ",
"      ==**++++++**              ",
"      ==**++++++**              ",
"      ..++++++++''              ",
"      ..++++++++''              ",
"      ##++++++++,,              ",
"      ##++++++++,,              ",
"    @@++++++++>>                ",
"    @@++++++++>>                ",
"    @@%%%%%%%%--                ",
"    @@%%%%%%%%--                ",
"                                ",
"                                ",
"                                ",
"                                "};
