/* XPM */
static char * 8_xpm[] = {
"32 48 16 1",
" 	c #000000",
".	c #262626",
"+	c #AAAAAA",
"@	c #FFFFFF",
"#	c #424242",
"$	c #F4F4F4",
"%	c #D1D1D1",
"&	c #9C9C9C",
"*	c #E9E9E9",
"=	c #6B6B6B",
"-	c #DDDDDD",
";	c #7D7D7D",
">	c #585858",
",	c #B8B8B8",
"'	c #C5C5C5",
")	c #8D8D8D",
"                                ",
"                                ",
"                                ",
"                                ",
"                                ",
"        ..++@@@@@@@@++##        ",
"        ..++@@@@@@@@++##        ",
"      ##$$@@@@@@@@@@@@$$##      ",
"      ##$$@@@@@@@@@@@@$$##      ",
"      %%@@@@@@@@&&**@@@@++      ",
"      %%@@@@@@@@&&**@@@@++      ",
"    ..@@@@@@@@==  ##@@@@--      ",
"    ..@@@@@@@@==  ##@@@@--      ",
"    ##@@@@@@@@;;    **@@**      ",
"    ##@@@@@@@@;;    **@@**      ",
"    ##@@@@@@@@@@>>  $$@@--      ",
"    ##@@@@@@@@@@>>  $$@@--      ",
"      $$@@@@@@@@$$,,@@@@++      ",
"      $$@@@@@@@@$$,,@@@@++      ",
"      &&@@@@@@@@@@@@@@$$..      ",
"      &&@@@@@@@@@@@@@@$$..      ",
"        --@@@@@@@@@@@@>>        ",
"        --@@@@@@@@@@@@>>        ",
"        &&@@@@@@@@@@@@,,        ",
"        &&@@@@@@@@@@@@,,        ",
"      &&@@@@@@@@@@@@@@@@&&      ",
"      &&@@@@@@@@@@@@@@@@&&      ",
"    ##@@@@-->>$$@@@@@@@@$$..    ",
"    ##@@@@-->>$$@@@@@@@@$$..    ",
"    &&@@@@;;  >>@@@@@@@@@@;;    ",
"    &&@@@@;;  >>@@@@@@@@@@;;    ",
"    ,,@@@@==    ,,@@@@@@@@&&    ",
"    ,,@@@@==    ,,@@@@@@@@&&    ",
"    ,,@@@@;;    &&@@@@@@@@&&    ",
"    ,,@@@@;;    &&@@@@@@@@&&    ",
"    &&@@@@,,    %%@@@@@@@@;;    ",
"    &&@@@@,,    %%@@@@@@@@;;    ",
"    >>@@@@@@,,,,@@@@@@@@$$..    ",
"    >>@@@@@@,,,,@@@@@@@@$$..    ",
"      ''@@@@@@@@@@@@@@@@&&      ",
"      ''@@@@@@@@@@@@@@@@&&      ",
"        ''@@@@@@@@@@@@))        ",
"        ''@@@@@@@@@@@@))        ",
"          ##&&&&&&&&            ",
"          ##&&&&&&&&            ",
"                                ",
"                                ",
"                                "};
