/* XPM */
static char * elf_up_xpm[] = {
"48 48 10 1",
" 	c #662D91",
".	c #43280D",
"+	c #650600",
"@	c #000000",
"#	c #985128",
"$	c #FE87A9",
"%	c #DC7558",
"&	c #006506",
"*	c #009800",
"=	c #00CB51",
"                                                ",
"                                                ",
"                      ..++      @@@@            ",
"                      ..++      @@@@            ",
"                    ..++      @@@@              ",
"                    ..++      @@@@              ",
"                    ..++    @@@@                ",
"                    ..++    @@@@                ",
"                  ##..++##  @@@@                ",
"                  ##..++##  @@@@                ",
"                ##$$....  @@@@@@                ",
"                ##$$....  @@@@@@                ",
"                $$##%%##@@@@@@@@@@  @@@@        ",
"                $$##%%##@@@@@@@@@@  @@@@        ",
"                $$%%..++@@@@  @@@@@@@@@@@@@@    ",
"                $$%%..++@@@@  @@@@@@@@@@@@@@    ",
"                $$%%..++@@......@@@@@@@@@@@@    ",
"                $$%%..++@@......@@@@@@@@@@@@    ",
"                $$##..++..&&&&&&..@@@@@@@@@@    ",
"                $$##..++..&&&&&&..@@@@@@@@@@    ",
"              %%$$##..&&**====&&&&&&@@@@@@@@@@  ",
"              %%$$##..&&**====&&&&&&@@@@@@@@@@  ",
"              ##$$%%..**==**&&&&&&&&@@@@@@@@@@  ",
"              ##$$%%..**==**&&&&&&&&@@@@@@@@@@  ",
"              ##%%$$##**==**&&&&&&**..@@@@@@@@@@",
"              ##%%$$##**==**&&&&&&**..@@@@@@@@@@",
"              ##%%$$%%**==****&&****&&##@@@@@@  ",
"              ##%%$$%%**==****&&****&&##@@@@@@  ",
"                ##%%**&&**==&&****&&&&####@@@@  ",
"                ##%%**&&**==&&****&&&&####@@@@  ",
"                  **==&&&&******&&&&##$$%%##@@  ",
"                  **==&&&&******&&&&##$$%%##@@  ",
"                  **==&&&&&&**&&&&&&##$$%%##@@  ",
"                  **==&&&&&&**&&&&&&##$$%%##@@  ",
"                  &&**==&&&&==&&&&**##%%####@@  ",
"                  &&**==&&&&==&&&&**##%%####@@  ",
"                    &&****&&&&&&******##%%@@@@  ",
"                    &&****&&&&&&******##%%@@@@  ",
"                    ..&&&&&&******@@@@@@@@      ",
"                    ..&&&&&&******@@@@@@@@      ",
"                    ..........@@@@@@@@@@        ",
"                    ..........@@@@@@@@@@        ",
"                  &&..####@@@@@@@@@@            ",
"                  &&..####@@@@@@@@@@            ",
"                &&&&&&&&&&@@@@                  ",
"                &&&&&&&&&&@@@@                  ",
"                  &&&&****@@                    ",
"                  &&&&****@@                    "};
