/* XPM */
static char * ghost_left_xpm[] = {
"48 48 52 1",
" 	c #662D91",
".	c #E1E1E1",
"+	c #D2D2D2",
"@	c #A8A8B4",
"#	c #FFFFFF",
"$	c #8C89AA",
"%	c #30246C",
"&	c #C3C3C7",
"*	c #A0A0AC",
"=	c #73737B",
"-	c #DCDCDC",
";	c #C7C7CA",
">	c #A3A3AF",
",	c #808089",
"'	c #E0E0E0",
")	c #DFDFDF",
"!	c #D9D9DA",
"~	c #A2A2AE",
"{	c #CFCBCF",
"]	c #FBFBFB",
"^	c #F8F8F8",
"/	c #DADADB",
"(	c #C5C5C5",
"_	c #F9F9F9",
":	c #E7E7E7",
"<	c #D5D5D5",
"[	c #FAFAFA",
"}	c #F4F4F4",
"|	c #DEDEDE",
"1	c #DDDDDD",
"2	c #CECECF",
"3	c #8C8C96",
"4	c #F3F3F3",
"5	c #E9E9E9",
"6	c #9999A4",
"7	c #DCDCDD",
"8	c #BCBCC2",
"9	c #ECECEC",
"0	c #F7F7F7",
"a	c #BFBFBF",
"b	c #E3E3E3",
"c	c #FDFDFD",
"d	c #F6F6F7",
"e	c #BCBCBD",
"f	c #D2D0D2",
"g	c #D3D3D3",
"h	c #CFCFD0",
"i	c #C7C5C7",
"j	c #C4C2C4",
"k	c #EFEFF2",
"l	c #9C9AA7",
"m	c #B9B9B9",
"                                                ",
"                                                ",
"                                                ",
"                                                ",
"                                                ",
"                                                ",
"........++++++@@@@                              ",
"........++++++@@@@                              ",
"  ############..++@@@@$$                        ",
"  ############..++@@@@$$                        ",
"  %%%%..%%%%%%%%..++&&**==                      ",
"  %%%%..%%%%%%%%..++&&**==                      ",
"      %%        %%..--;;>>,,                    ",
"      %%        %%..--;;>>,,                    ",
"                  ....''))!!~~                  ",
"                  ....''))!!~~                  ",
"                {{]]]]]]]]^^//((                ",
"                {{]]]]]]]]^^//((                ",
"                __######]]::..<<                ",
"                __######]]::..<<                ",
"                ########[[....++                ",
"                ########[[....++                ",
"                ####}}..||++++@@              %%",
"                ####}}..||++++@@              %%",
"                ##....11++22@@3333          %%33",
"                ##....11++22@@3333          %%33",
"                %%####44++++++333333%%%%%%%%3333",
"                %%####44++++++333333%%%%%%%%3333",
"                  %%%%55##]]++@@33333333333333  ",
"                  %%%%55##]]++@@33333333333333  ",
"                    %%55[[''++@@@@3333333366@@  ",
"                    %%55[[''++@@@@3333333366@@  ",
"                    %%55[[77@@++@@@@@@@@@@88    ",
"                    %%55[[77@@++@@@@@@@@@@88    ",
"                  ..99##00aa%%..++++++++        ",
"                  ..99##00aa%%..++++++++        ",
"                  bb99ccddee  ffgghhiijj        ",
"                  bb99ccddee  ffgghhiijj        ",
"  ....##############}}55kkll    ..@@            ",
"  ....##############}}55kkll    ..@@            ",
"        ..##++++++......mm                      ",
"        ..##++++++......mm                      ",
"                                                ",
"                                                ",
"                                                ",
"                                                ",
"                                                ",
"                                                "};
