/* XPM */
static char * moves_xpm[] = {
"192 48 16 1",
" 	c #000000",
".	c #3F1964",
"+	c #7233B0",
"@	c #B655FF",
"#	c #BE59FF",
"$	c #4E2079",
"%	c #A54CF9",
"&	c #1B062C",
"*	c #7D39C0",
"=	c #2E104B",
"-	c #9C48EB",
";	c #672D9F",
">	c #883ECF",
",	c #9143DE",
"'	c #5A278D",
")	c #AD51FF",
"                                                                                                                                                                                                ",
"                                                                                                                                                                                                ",
"                                                                                                                                                                                                ",
"                                                                                                                                                                                                ",
"                                                                                                                                                                                                ",
"                                                       .++@#######@++$                                                                                           $++@########%++&               ",
"###############*         %###############=          =+#################*.      -############$             +############;##############################>       &+#################%;             ",
"###############%        &################=        &>#####################,&    ,############*             %############;##############################>      ;#####################%.           ",
"################&       '################=       $)#######################@'   '############)            &############-;##############################>     ,########################$          ",
"################'       *################=      '###########################+   @############.           ;############;;##############################>    ,##########################.         ",
"################*       @################=     '#############################+  *############+           ,###########@&;##############################>   ;###########################%         ",
"################%      .#################=    .###############################' .############%          &@###########> ;##############################>  &@############################'        ",
"#################&     +#################=    %###############################)& %############&         '############$ ;##############################>  ;#############################,        ",
"#################'     ,#################=   ;#################################+ +############+         >###########)  ;##############################>  ,#############################@        ",
"#################*     @#################=   )#############@+& =+@#############@&&############,         @###########+  ;##############################>  )###########%'  .*#############.       ",
"#################%    .##################=  '#############-&     &-#############; ,############&       .############=  ;############=                    )##########@&     .############;       ",
"##################=   +##################=  ,############%         %############- '############'       *###########%   ;############=                    )##########)&      *#######%+++.       ",
"##################+   ,##################=  @############=         =#############& @###########,       %###########+   ;############=                    )###########)+                         ",
"##################,   @##################= .############,           >############$ *###########@      .############&   ;############=                    %##############)++&                    ",
"##################@  .###################= +############'           '############+ .############'     +###########,    ;############=                    *###################>+&                ",
"###################. +###################= *############&           &############*  %###########*     -###########'    ;#############################$   $######################)+&             ",
"##########@########+ ,########@##########= >###########@             )###########>  +###########)    &###########@     ;#############################$    -########################>=           ",
"##########,########, @########,##########= -###########%             %###########-  &############.   ;###########*     ;#############################$    =@#########################;          ",
"##########+########@.#########+##########= -###########-             -###########-   ,###########+   ,###########.     ;#############################$     $##########################>         ",
"##########.#########>########@$##########= -###########-             -###########-   '###########%  &@##########%      ;#############################$      .)#########################*        ",
"########## @#################,$##########= -###########-             -###########-    @###########= '###########+      ;#############################$        +#########################.       ",
"########## ,#################+$##########= -###########%             )###########,    *###########+ *###########&      ;#############################$          +%######################-       ",
"########## +#################=$##########= >###########@             @###########>    .###########- @##########,       ;#############################$            &+,####################&      ",
"########## .################% $##########= *############&           =############+     %###########$###########;       ;#############################$                =+*################'      ",
"##########  )###############* $##########= +############'           '############;     +###########)##########@&       ;############=                                     $,#############+      ",
"##########  *###############' $##########= .############>           >############.     &######################>        ;############=                  =+++++-#####,        ;############>      ",
"##########  '###############& $##########=  @############=         &@############&      ,#####################$        ;############=                  $###########@&        -###########>      ",
"##########  &##############%  $##########=  ,############%         ,############,       '####################)         ;############=                  =############+        -###########*      ",
"##########   %#############*  $##########=  ;#############-       ,#############;        @###################+         ;############=                   @############'      ;############+      ",
"##########   *#############'  $##########=   @#############@+& &+)#############@&        *###################=         ;###############################=,#############,;  .>#############.      ",
"##########   '#############&  $##########=   +#################################+         .##################-          ;###############################=+###############################@       ",
"##########   &############%   $##########=    %###############################)&          %#################;          ;###############################=&@##############################+       ",
"##########    %###########*   $##########=    .###############################.           +################@&          ;###############################= +#############################@&       ",
"##########    *###########'   $##########=     ;#############################+            &################>           ;###############################= &)############################;        ",
"##########    '###########&   $##########=      ;###########################+              ,###############$           ;###############################=  .###########################*         ",
"##########    &##########%    $##########=       '@########################'               '##############@            ;###############################=   $#########################*          ",
"##########     %#########*    $##########=        =,#####################,=                 @#############*            ;###############################=    .%#####################)'           ",
"##########     *#########'    $##########=          .*#################>$                   *#############.            ;###############################=      ;-#################)+             ",
"                                                       $++@########>+;                                                                                           ++*#########%++=               ",
"                                                                                                                                                                                                ",
"                                                                                                                                                                                                ",
"                                                                                                                                                                                                ",
"                                                                                                                                                                                                "};
