/* XPM */
static char * target_xpm[] = {
"192 48 16 1",
" 	c #000000",
".	c #00400E",
"+	c #007320",
"@	c #01B738",
"#	c #01BF3B",
"$	c #01AE35",
"%	c #002F08",
"&	c #018928",
"*	c #005C18",
"=	c #00681C",
"-	c #019C2F",
";	c #01A532",
">	c #004E13",
",	c #001A03",
"'	c #017E24",
")	c #01922B",
"                                                                                                                                                                                                ",
"                                                                                                                                                                                                ",
"                                                                                                                                                                                                ",
"                                                                                                                                                                                                ",
"                                                                                                                                                                                                ",
"                                                                                                                                                                                                ",
"                                                                                                                                                                                                ",
"                                                                                                      .++@########@++.                                                                          ",
"##############################$      +############%          &#####################&+*              +@################$=        -##########################+##############################$     ",
"##############################$      ;############+          &########################@*          >$####################-,      -##########################+##############################$     ",
"##############################$     .#############;          &##########################&        '#######################;,     -##########################+##############################$     ",
"##############################$     '##############.         &###########################+      &#########################)     -##########################+##############################$     ",
"##############################$     @##############'         &############################%    +###########################=    -##########################+##############################$     ",
"##############################$    >###############@         &############################+   .############################@    -##########################+##############################$     ",
"##############################$    &################*        &############################;   -#############'+&#############=   -##########################+##############################$     ",
"+++++++++'##########@++++++++++   ,@################&        &##########)+++++@###########@  >############+    ,)###########)   -##########&+++++++++++++++>+++++++++'##########@++++++++++     ",
"         %##########$             =#################@,       &##########=      '###########  )###########>       )##########&   -##########>                         %##########$               ",
"         %##########$             -##################=       &##########=      ,########### ,###########+        %#####)++      -##########>                         %##########$               ",
"         %##########$            ,#########@#########-       &##########=      *########### *##########@,         =++           -##########>                         %##########$               ",
"         %##########$            +#########+@#########%      &##########=    *+###########; '##########&                        -##########>                         %##########$               ",
"         %##########$            ;#########,)#########+      &############################+ -##########=                        -#########################=          %##########$               ",
"         %##########$           .#########; *#########;      &############################% $##########.                        -#########################=          %##########$               ",
"         %##########$           '#########+ ,##########.     &###########################+  @##########%     ################=  -#########################=          %##########$               ",
"         %##########$           @#########.  )#########'     &##########################&   ###########      ################=  -#########################=          %##########$               ",
"         %##########$          >#########@   =#########@     &#########################+    ###########      ################=  -#########################=          %##########$               ",
"         %##########$          &#########&   ,##########>    &#######################+%     ###########,     ################=  -#########################=          %##########$               ",
"         %##########$         ,@#########*    -#########&    &######################$*      $##########%     ################=  -#########################=          %##########$               ",
"         %##########$         =#########################@,   &##########);############+     ;##########*     ################=  -##########&++++++++++++++.          %##########$               ",
"         %##########$         -##########################=   &##########= =############*    )##########+     ################=  -##########>                         %##########$               ",
"         %##########$        %###########################)   &##########=  '###########@%   +##########;     ++++++-#########=  -##########>                         %##########$               ",
"         %##########$        +############################,  &##########=  ,@###########)   .###########>          +#########=  -##########>                         %##########$               ",
"         %##########$        ;############################+  &##########=   +############>   $##########;          +#########=  -##########>                         %##########$               ",
"         %##########$       .#############################;  &##########=    $###########-   +###########-,       +##########=  -##########>                         %##########$               ",
"         %##########$       '##############################. &##########=    =############>  %############@+%  *'############=  -###########################         %##########$               ",
"         %##########$       @##############################+ &##########=     $###########-   +##############################=  -###########################         %##########$               ",
"         %##########$      *##########;+++++++++)##########$ &##########=     *############>  ,$#############################=  -###########################         %##########$               ",
"         %##########$      &##########=         %###########>&##########=      -###########-   .@###########################$.  -###########################         %##########$               ",
"         %##########$     ,@##########,          ;##########&&##########=      >############>   >##########################&    -###########################         %##########$               ",
"         %##########$     =##########;           +##########@&##########=       -###########$    .$######################-.     -###########################         %##########$               ",
"         %##########$     -##########+           .###########$##########=       %############=     '###################->       -###########################         %##########$               ",
"         ,+++++++++++     +++++++++++%            ++++++++++++++++++++++.        =+++++++++++>       +;#############;+%         =+++++++++++++++++++++++++++         ,+++++++++++               ",
"                                                                                                        ,+++++++++                                                                              ",
"                                                                                                                                                                                                ",
"                                                                                                                                                                                                ",
"                                                                                                                                                                                                ",
"                                                                                                                                                                                                ",
"                                                                                                                                                                                                ",
"                                                                                                                                                                                                "};
