/* XPM */
static char * 2_xpm[] = {
"32 48 15 1",
" 	c #000000",
".	c #9C9C9C",
"+	c #FFFFFF",
"@	c #AAAAAA",
"#	c #424242",
"$	c #F4F4F4",
"%	c #585858",
"&	c #6B6B6B",
"*	c #E9E9E9",
"=	c #8D8D8D",
"-	c #262626",
";	c #C5C5C5",
">	c #DDDDDD",
",	c #D1D1D1",
"'	c #7D7D7D",
"                                ",
"                                ",
"                                ",
"                                ",
"                                ",
"                                ",
"          ..++++++++@@##        ",
"          ..++++++++@@##        ",
"        @@++++++++++++$$%%      ",
"        @@++++++++++++$$%%      ",
"      &&++++**@@++++++++**      ",
"      &&++++**@@++++++++**      ",
"      ..++$$##  ==++++++++%%    ",
"      ..++$$##  ==++++++++%%    ",
"      --..&&    &&++++++++&&    ",
"      --..&&    &&++++++++&&    ",
"                ..++++++++%%    ",
"                ..++++++++%%    ",
"              ##$$++++++$$      ",
"              ##$$++++++$$      ",
"              ;;++++++++..      ",
"              ;;++++++++..      ",
"            ..++++++++>>        ",
"            ..++++++++>>        ",
"          ##$$++++++++%%        ",
"          ##$$++++++++%%        ",
"          ,,++++++++..          ",
"          ,,++++++++..          ",
"        ==++++++++>>            ",
"        ==++++++++>>            ",
"        $$++++++++##            ",
"        $$++++++++##            ",
"      ''++++++++..              ",
"      ''++++++++..              ",
"      @@++++++$$--              ",
"      @@++++++$$--              ",
"      >>++++++,,                ",
"      >>++++++,,                ",
"      **++++++++++++++&&        ",
"      **++++++++++++++&&        ",
"      **++++++++++++++&&        ",
"      **++++++++++++++&&        ",
"      ................##        ",
"      ................##        ",
"                                ",
"                                ",
"                                ",
"                                "};
