/* XPM */
static char * 4_xpm[] = {
"32 48 12 1",
" 	c #000000",
".	c #424242",
"+	c #FFFFFF",
"@	c #DDDDDD",
"#	c #9C9C9C",
"$	c #585858",
"%	c #F4F4F4",
"&	c #B8B8B8",
"*	c #D1D1D1",
"=	c #E9E9E9",
"-	c #262626",
";	c #6B6B6B",
"                                ",
"                                ",
"                                ",
"                                ",
"                                ",
"                                ",
"                    ..++        ",
"                    ..++        ",
"                    @@++        ",
"                    @@++        ",
"                  ##++++        ",
"                  ##++++        ",
"                ..++++++        ",
"                ..++++++        ",
"                @@++++++        ",
"                @@++++++        ",
"              ##++++++++        ",
"              ##++++++++        ",
"            $$++++++++++        ",
"            $$++++++++++        ",
"            @@++++++++++        ",
"            @@++++++++++        ",
"          ##++++++++++++        ",
"          ##++++++++++++        ",
"        $$++++++++++++++        ",
"        $$++++++++++++++        ",
"        @@++%%&&++++++++        ",
"        @@++%%&&++++++++        ",
"      ##++++@@**++++++++####    ",
"      ##++++@@**++++++++####    ",
"    $$++++++++++++++++++++==    ",
"    $$++++++++++++++++++++==    ",
"    **++++++++++++++++++++==    ",
"    **++++++++++++++++++++==    ",
"    ##--      ##++++++++        ",
"    ##--      ##++++++++        ",
"              ##++++++++        ",
"              ##++++++++        ",
"              ##++++++++        ",
"              ##++++++++        ",
"              ##++++++++        ",
"              ##++++++++        ",
"              ;;########        ",
"              ;;########        ",
"                                ",
"                                ",
"                                ",
"                                "};
