/* XPM */
static char * 6_xpm[] = {
"32 48 16 1",
" 	c #000000",
".	c #6B6B6B",
"+	c #E9E9E9",
"@	c #FFFFFF",
"#	c #F4F4F4",
"$	c #9C9C9C",
"%	c #7D7D7D",
"&	c #C5C5C5",
"*	c #262626",
"=	c #8D8D8D",
"-	c #585858",
";	c #B8B8B8",
">	c #DDDDDD",
",	c #AAAAAA",
"'	c #D1D1D1",
")	c #424242",
"                                ",
"                                ",
"                                ",
"                                ",
"          ..++@@@@##$$          ",
"          ..++@@@@##$$          ",
"        %%@@@@@@@@@@@@&&        ",
"        %%@@@@@@@@@@@@&&        ",
"      **##@@@@##==$$&&++        ",
"      **##@@@@##==$$&&++        ",
"      $$@@@@@@$$                ",
"      $$@@@@@@$$                ",
"      ++@@@@@@**                ",
"      ++@@@@@@**                ",
"    --@@@@@@++                  ",
"    --@@@@@@++                  ",
"    %%@@@@@@++##@@@@;;          ",
"    %%@@@@@@++##@@@@;;          ",
"    $$@@@@@@@@@@@@@@@@>>        ",
"    $$@@@@@@@@@@@@@@@@>>        ",
"    $$@@@@@@@@++++@@@@@@$$      ",
"    $$@@@@@@@@++++@@@@@@$$      ",
"    ;;@@@@@@@@....@@@@@@##      ",
"    ;;@@@@@@@@....@@@@@@##      ",
"    ;;@@@@@@@@    ##@@@@@@%%    ",
"    ;;@@@@@@@@    ##@@@@@@%%    ",
"    ,,@@@@@@++    ++@@@@@@$$    ",
"    ,,@@@@@@++    ++@@@@@@$$    ",
"    $$@@@@@@++    ''@@@@@@$$    ",
"    $$@@@@@@++    ''@@@@@@$$    ",
"    $$@@@@@@++    ++@@@@@@$$    ",
"    $$@@@@@@++    ++@@@@@@$$    ",
"    ..@@@@@@@@    ##@@@@@@==    ",
"    ..@@@@@@@@    ##@@@@@@==    ",
"    **##@@@@@@..--@@@@@@@@))    ",
"    **##@@@@@@..--@@@@@@@@))    ",
"      ;;@@@@@@>>>>@@@@@@''      ",
"      ;;@@@@@@>>>>@@@@@@''      ",
"      ))@@@@@@@@@@@@@@##))      ",
"      ))@@@@@@@@@@@@@@##))      ",
"        ..@@@@@@@@@@##..        ",
"        ..@@@@@@@@@@##..        ",
"            $$$$$$$$            ",
"            $$$$$$$$            ",
"                                ",
"                                ",
"                                ",
"                                "};
