/* XPM */
static char * 9_xpm[] = {
"32 48 16 1",
" 	c #000000",
".	c #9C9C9C",
"+	c #FFFFFF",
"@	c #F4F4F4",
"#	c #262626",
"$	c #DDDDDD",
"%	c #B8B8B8",
"&	c #C5C5C5",
"*	c #D1D1D1",
"=	c #6B6B6B",
"-	c #585858",
";	c #7D7D7D",
">	c #8D8D8D",
",	c #AAAAAA",
"'	c #E9E9E9",
")	c #424242",
"                                ",
"                                ",
"                                ",
"                                ",
"          ..++++++@@..          ",
"          ..++++++@@..          ",
"      ##$$++++++++++++%%        ",
"      ##$$++++++++++++%%        ",
"      &&++++++..**++++++==      ",
"      &&++++++..**++++++==      ",
"    --++++++@@  ;;++++++&&      ",
"    --++++++@@  ;;++++++&&      ",
"    ..++++++$$  ##++++++++##    ",
"    ..++++++$$  ##++++++++##    ",
"    %%++++++**    ++++++++--    ",
"    %%++++++**    ++++++++--    ",
"    %%++++++**    ++++++++>>    ",
"    %%++++++**    ++++++++>>    ",
"    ,,++++++**  ##++++++++>>    ",
"    ,,++++++**  ##++++++++>>    ",
"    ;;++++++@@  --++++++++..    ",
"    ;;++++++@@  --++++++++..    ",
"    ##@@++++++..&&++++++++..    ",
"    ##@@++++++..&&++++++++..    ",
"      >>++++++++++++++++++..    ",
"      >>++++++++++++++++++..    ",
"        ..++++++++++++++++>>    ",
"        ..++++++++++++++++>>    ",
"          --......''++++++==    ",
"          --......''++++++==    ",
"                  ++++++++))    ",
"                  ++++++++))    ",
"                ==++++++@@      ",
"                ==++++++@@      ",
"        ..      &&++++++,,      ",
"        ..      &&++++++,,      ",
"        ++@@..&&++++++++))      ",
"        ++@@..&&++++++++))      ",
"        ''++++++++++++,,        ",
"        ''++++++++++++,,        ",
"        --''++++++++&&          ",
"        --''++++++++&&          ",
"            >>....;;            ",
"            >>....;;            ",
"                                ",
"                                ",
"                                ",
"                                "};
