/* XPM */
static char * dead_xpm[] = {
"48 48 79 1",
" 	c #662D91",
".	c #151A18",
"+	c #17191A",
"@	c #171918",
"#	c #17181C",
"$	c #181916",
"%	c #151A1A",
"&	c #1A1818",
"*	c #48525A",
"=	c #928B8B",
"-	c #908B8D",
";	c #4D5156",
">	c #908C8B",
",	c #485356",
"'	c #908B8F",
")	c #D3D2A1",
"!	c #D3D39F",
"~	c #FFFEFF",
"{	c #CFD2A1",
"]	c #FFFDFF",
"^	c #D2D19F",
"/	c #4C5254",
"(	c #181818",
"_	c #4C5256",
":	c #918A88",
"<	c #CFD0A0",
"[	c #D1D29D",
"}	c #D1D29F",
"|	c #CFD39D",
"1	c #928A8D",
"2	c #938A8B",
"3	c #CFD39F",
"4	c #FFFFFF",
"5	c #CED29E",
"6	c #D4D09F",
"7	c #8E8C8D",
"8	c #FFFEFD",
"9	c #928B89",
"0	c #4A5258",
"a	c #FFFFFD",
"b	c #908C89",
"c	c #4A525A",
"d	c #48525C",
"e	c #4C5158",
"f	c #938A89",
"g	c #4A5256",
"h	c #8D8C91",
"i	c #D1D2A1",
"j	c #8D8D8D",
"k	c #4C505C",
"l	c #4E5256",
"m	c #141B1A",
"n	c #4D5154",
"o	c #918D8C",
"p	c #93898F",
"q	c #15191C",
"r	c #4D505A",
"s	c #8E8C8B",
"t	c #18181A",
"u	c #938A8D",
"v	c #D4D19D",
"w	c #171A16",
"x	c #151A16",
"y	c #D4D0A1",
"z	c #475255",
"A	c #8F8A8C",
"B	c #18181C",
"C	c #8D8C8F",
"D	c #D2D1A1",
"E	c #181A1A",
"F	c #CDD49F",
"G	c #959597",
"H	c #4A5057",
"I	c #181A1C",
"J	c #4A5354",
"K	c #4A5556",
"L	c #4D5058",
"M	c #D1D09E",
"N	c #918C8E",
"                                                ",
"                                                ",
"                                                ",
"                                                ",
"                 ..++@@##@@++$$                 ",
"                 ..++@@##@@++$$                 ",
"             %%&&**==--;;>>==,,++%%             ",
"             %%&&**==--;;>>==,,++%%             ",
"           @@;;''))!!~~{{]]^^^^''//((           ",
"           @@;;''))!!~~{{]]^^^^''//((           ",
"         %%__::<<[[}}}}||]]~~}}^^11;;@@         ",
"         %%__::<<[[}}}}||]]~~}}^^11;;@@         ",
"         &&--==2233~~~~4455~~^^66==77$$         ",
"         &&--==2233~~~~4455~~^^66==77$$         ",
"       @@**==2266}}8844~~4488^^==119900++       ",
"       @@**==2266}}8844~~4488^^==119900++       ",
"       ((**====^^^^^^aa~~]]}}^^}}==bb**((       ",
"       ((**====^^^^^^aa~~]]}}^^}}==bb**((       ",
"       ((**====}}^^66}}}}}}^^^^}}99>>cc@@       ",
"       ((**====}}^^66}}}}}}^^^^}}99>>cc@@       ",
"       @@****112266}}^^^^^^^^^^==99dd**((       ",
"       @@****112266}}^^^^^^^^^^==99dd**((       ",
"       @@**eeff3333^^^^^^^^^^}}3399gg**@@       ",
"       @@**eeff3333^^^^^^^^^^}}3399gg**@@       ",
"       @@eehhiiaa~~33^^^^^^^^aaaa}}jjkk..       ",
"       @@eehhiiaa~~33^^^^^^^^aaaa}}jjkk..       ",
"       @@11ll@@((mmnnoo22ppnn@@((qqrrss@@       ",
"       @@11ll@@((mmnnoo22ppnn@@((qqrrss@@       ",
"       ((--++$$..@@ttuuvv--++@@@@@@ww>>((       ",
"       ((--++$$..@@ttuuvv--++@@@@@@ww>>((       ",
"       @@==..xx((++nn}}33yyzz((@@@@..>>((       ",
"       @@==..xx((++nn}}33yyzz((@@@@..>>((       ",
"       ((jjnn@@&&AA''__ttee''>>((BB;;ss@@       ",
"       ((jjnn@@&&AA''__ttee''>>((BB;;ss@@       ",
"       @@;;CC^^^^DD99EE@@((>>}}^^FFGG__tt       ",
"       @@;;CC^^^^DD99EE@@((>>}}^^FFGG__tt       ",
"         @@@@HH''11==II(($$>>--uu__++@@         ",
"         @@@@HH''11==II(($$>>--uu__++@@         ",
"             ++++JJ11KK11LLss;;++@@             ",
"             ++++JJ11KK11LLss;;++@@             ",
"                 @@>>11MMNNuutt                 ",
"                 @@>>11MMNNuutt                 ",
"                 ((ww@@ttww..@@                 ",
"                 ((ww@@ttww..@@                 ",
"                                                ",
"                                                ",
"                                                ",
"                                                "};
