/* XPM */
static char * elf_left2_xpm[] = {
"48 48 11 1",
" 	c #662D91",
".	c #43280D",
"+	c #009800",
"@	c #006506",
"#	c #000000",
"$	c #650600",
"%	c #00CB51",
"&	c #2D2443",
"*	c #985128",
"=	c #DC7558",
"-	c #FE87A9",
"                                                ",
"                                                ",
"                                                ",
"                                                ",
"                                                ",
"                                                ",
"        ..              ++@@@@@@@@######        ",
"        ..              ++@@@@@@@@######        ",
"      $$..      ##    ++++%%%%++@@@@######      ",
"      $$..      ##    ++++%%%%++@@@@######      ",
"    $$..      ####    ..%%++++++++@@########    ",
"    $$..      ####    ..%%++++++++@@########    ",
"    $$..    ####      &&%%++++++++++@@######    ",
"    $$..    ####      &&%%++++++++++@@######    ",
"  $$....    ####    ..**%%++++++@@@@++@@######  ",
"  $$....    ####    ..**%%++++++@@@@++@@######  ",
"  $$..    ####      ..==..%%++@@@@@@@@@@@@@@####",
"  $$..    ####      ..==..%%++@@@@@@@@@@@@@@####",
"  $$..    ####    ****====..@@@@@@++@@@@######  ",
"  $$..    ####    ****====..@@@@@@++@@@@######  ",
"  $$..    ######==******++..@@@@++++++@@####    ",
"  $$..    ######==******++..@@@@++++++@@####    ",
"--$$..==  ##########**++%%%%++++++++++@@######  ",
"--$$..==  ##########**++%%%%++++++++++@@######  ",
"==----==**==----****====**%%%%++++++@@@@######  ",
"==----==**==----****====**%%%%++++++@@@@######  ",
"  ======**======**------==**%%++++++@@@@####    ",
"  ======**======**------==**%%++++++@@@@####    ",
"  $$..  ####******==--==****%%++@@@@@@..##      ",
"  $$..  ####******==--==****%%++@@@@@@..##      ",
"  $$..  ######    ******%%++++@@@@@@....##      ",
"  $$..  ######    ******%%++++@@@@@@....##      ",
"    $$..##          ++@@@@@@@@@@@@....@@        ",
"    $$..##          ++@@@@@@@@@@@@....@@        ",
"    $$..##        ....@@@@@@@@@@##              ",
"    $$..##        ....@@@@@@@@@@##              ",
"    $$..####    **..........##                  ",
"    $$..####    **..........##                  ",
"      $$..##  @@****....##                      ",
"      $$..##  @@****....##                      ",
"      $$..##  @@@@......                        ",
"      $$..##  @@@@......                        ",
"      $$..##    @@@@@@@@                        ",
"      $$..##    @@@@@@@@                        ",
"                                                ",
"                                                ",
"                                                ",
"                                                "};
