/* XPM */
static char * elf_down2_xpm[] = {
"48 48 11 1",
" 	c #662D91",
".	c #006506",
"+	c #009800",
"@	c #00CB51",
"#	c #000000",
"$	c #43280D",
"%	c #985128",
"&	c #FE87A9",
"*	c #DC7558",
"=	c #2D2443",
"-	c #650600",
"                    ....++@@                    ",
"                    ....++@@                    ",
"                  ++@@..++                      ",
"                  ++@@..++                      ",
"                ..@@++++++                      ",
"                ..@@++++++                      ",
"              ..++++......++      ####          ",
"              ..++++......++      ####          ",
"              ....$$$$$$....############        ",
"              ....$$$$$$....############        ",
"              ..$$$$$$$$$$..############        ",
"              ..$$$$$$$$$$..############        ",
"          %%%%$$$$&&$$$$**$$..########          ",
"          %%%%$$$$&&$$$$**$$..########          ",
"        %%&&**$$**==**==**$$..%%########        ",
"        %%&&**$$**==**==**$$..%%########        ",
"        %%**%%$$**&&&&&&**$$%%**%%########      ",
"        %%**%%$$**&&&&&&**$$%%**%%########      ",
"        %%%%$$..%%&&==&&%%..--%%**%%######      ",
"        %%%%$$..%%&&==&&%%..--%%**%%######      ",
"        %%$$$$..++****%%....--%%****########    ",
"        %%$$$$..++****%%....--%%****########    ",
"          %%$$....++++++....$$--%%**########    ",
"          %%$$....++++++....$$--%%**########    ",
"          %%$$....++++....%%$$--%%**########    ",
"          %%$$....++++....%%$$--%%**########    ",
"        **%%$$$$........$$%%$$--****########    ",
"        **%%$$$$........$$%%$$--****########    ",
"          %%$$$$$$$$$$$$$$%%$$--**%%########    ",
"          %%$$$$$$$$$$$$$$%%$$--**%%########    ",
"            $$%%%%$$####**$$$$--**%%######      ",
"            $$%%%%$$####**$$$$--**%%######      ",
"            %%%%$$######..********%%######      ",
"            %%%%$$######..********%%######      ",
"          $$%%%%$$########&&&&&&**..####        ",
"          $$%%%%$$########&&&&&&**..####        ",
"          $$$$$$..########**&&&&%%              ",
"          $$$$$$..########**&&&&%%              ",
"          ..$$....######  $$%%%%                ",
"          ..$$....######  $$%%%%                ",
"        ..++....######    $$--                  ",
"        ..++....######    $$--                  ",
"        ..++++..####      $$--                  ",
"        ..++++..####      $$--                  ",
"        ##....####      $$--                    ",
"        ##....####      $$--                    ",
"        ########      $$--                      ",
"        ########      $$--                      "};
