/* XPM */
static char * enemy_down_xpm[] = {
"48 48 13 1",
" 	c #662D91",
".	c #552579",
"+	c #7E7E87",
"@	c #9E9EA9",
"#	c #DCDCDC",
"$	c #CBCBCB",
"%	c #FEFEFE",
"&	c #FE0000",
"*	c #434354",
"=	c #3D2A4C",
"-	c #21162D",
";	c #1B1B1B",
">	c #282836",
"                                                ",
"                                                ",
"                        ..                      ",
"                        ..                      ",
"                      ..++..                    ",
"                      ..++..                    ",
"                      ..@@..                    ",
"                      ..@@..                    ",
"                      @@@@..                    ",
"                      @@@@..                    ",
"                    ..@@##++..                  ",
"                    ..@@##++..                  ",
"                  ..$$$$##@@++..                ",
"                  ..$$$$##@@++..                ",
"                ..$$##%%%%$$++..                ",
"                ..$$##%%%%$$++..                ",
"              ..$$$$##%%%%$$++++....            ",
"              ..$$$$##%%%%$$++++....            ",
"            ..$$$$$$%%%%%%##@@++++..            ",
"            ..$$$$$$%%%%%%##@@++++..            ",
"          ..@@%%%%%%%%%%%%##@@++++++..          ",
"          ..@@%%%%%%%%%%%%##@@++++++..          ",
"        ..##%%%%%%%%%%%%%%$$@@@@@@@@++..        ",
"        ..##%%%%%%%%%%%%%%$$@@@@@@@@++..        ",
"      ..##%%##$$$$$$&&&&&&&&$$@@@@$$@@@@..      ",
"      ..##%%##$$$$$$&&&&&&&&$$@@@@$$@@@@..      ",
"    ..##%%##$$$$$$%%##$$$$$$##$$$$**##$$$$..    ",
"    ..##%%##$$$$$$%%##$$$$$$##$$$$**##$$$$..    ",
"  ..##%%$$====####%%%%%%%%##$$++++----##%%@@    ",
"  ..##%%$$====####%%%%%%%%##$$++++----##%%@@    ",
"  ==%%$$      ====##%%####$$@@;;;;  ==>>%%@@    ",
"  ==%%$$      ====##%%####$$@@;;;;  ==>>%%@@    ",
"  ==%%$$        ==##%%####$$@@;;    ==>>%%@@    ",
"  ==%%$$        ==##%%####$$@@;;    ==>>%%@@    ",
"  ==%%##          ==============    ====%%@@    ",
"  ==%%##          ==============    ====%%@@    ",
"  ==%%##                            ====%%@@    ",
"  ==%%##                            ====%%@@    ",
"  ==%%##                              ==%%$$    ",
"  ==%%##                              ==%%$$    ",
"  ==%%$$$$                          ==%%##$$    ",
"  ==%%$$$$                          ==%%##$$    ",
"  ==%%$$==                            ==####    ",
"  ==%%$$==                            ==####    ",
"    ==%%==                              %%      ",
"    ==%%==                              %%      ",
"                                                ",
"                                                "};
