/* XPM */
static char * enemy_up_xpm[] = {
"48 48 6 1",
" 	c #662D91",
".	c #D2D2D2",
"+	c #E1E1E1",
"@	c #A8A8B4",
"#	c #FFFFFF",
"$	c #3D2A4C",
"                                                ",
"                                                ",
"    ..                              ..          ",
"    ..                              ..          ",
"    ++..                            ++@@        ",
"    ++..                            ++@@        ",
"    ##@@..                        ++##..        ",
"    ##@@..                        ++##..        ",
"    ##@@$$                        $$##@@        ",
"    ##@@$$                        $$##@@        ",
"    ++##@@                          ++..@@      ",
"    ++##@@                          ++..@@      ",
"    ++##@@            ++##@@        $$..@@      ",
"    ++##@@            ++##@@        $$..@@      ",
"    ..##@@$$        ++####..@@      $$..@@      ",
"    ..##@@$$        ++####..@@      $$..@@      ",
"      ++##..@@$$    ######++@@    $$@@..@@      ",
"      ++##..@@$$    ######++@@    $$@@..@@      ",
"      @@++##++..@@$$######++@@$$$$....@@        ",
"      @@++##++..@@$$######++@@$$$$....@@        ",
"          ++##++....######..@@@@..@@@@$$        ",
"          ++##++....######..@@@@..@@@@$$        ",
"            ++####++######@@@@@@@@@@$$          ",
"            ++####++######@@@@@@@@@@$$          ",
"              ++########..@@@@@@@@$$            ",
"              ++########..@@@@@@@@$$            ",
"                ..########....@@$$              ",
"                ..########....@@$$              ",
"                  ++######++..@@$$              ",
"                  ++######++..@@$$              ",
"                  ++######++..@@$$              ",
"                  ++######++..@@$$              ",
"                  ++######++..@@$$              ",
"                  ++######++..@@$$              ",
"                @@######++++..$$                ",
"                @@######++++..$$                ",
"                ..####++++..@@$$                ",
"                ..####++++..@@$$                ",
"                ..++##++..@@$$                  ",
"                ..++##++..@@$$                  ",
"                  ++##..@@@@$$                  ",
"                  ++##..@@@@$$                  ",
"                  ++##@@$$$$$$                  ",
"                  ++##@@$$$$$$                  ",
"                    ++@@$$                      ",
"                    ++@@$$                      ",
"                    ++$$                        ",
"                    ++$$                        "};
