/* XPM */
static char * exit_xpm[] = {
"48 48 14 1",
" 	c #000000",
".	c #E0E0E0",
"+	c #B0B0B0",
"@	c #202020",
"#	c #D0D0D0",
"$	c #656565",
"%	c #343434",
"&	c #070707",
"*	c #969696",
"=	c #303030",
"-	c #404040",
";	c #808080",
">	c #030303",
",	c #020202",
"                                                ",
"                                                ",
"                                                ",
"   .........   ...      ..+   ...  @........#   ",
"   .........   ...      ..+   ...  @........#   ",
"   .........   ...      ..+   ...  @........#   ",
"   ...$%%%%%   ...      ..+   ...  &%%%..*%%=   ",
"   ...-        ...      ..+   ...      ..;      ",
"   ...-        ...      ..+   ...      ..;      ",
"   ......         ......      ...      ..;      ",
"   ......         ......      ...      ..;      ",
"   ......         ......      ...      ..;      ",
"   ...-           ......      ...      ..;      ",
"   ...-           ......      ...      ..;      ",
"   ...-           ......      ...      ..;      ",
"   ...-        ...      ..+   ...      ..;      ",
"   ...-        ...      ..+   ...      ..;      ",
"   ...-        ...      ..+   ...      ..;      ",
"   .........   ...      ..+   ...      ..;      ",
"   .........   ...      ..+   ...      ..;      ",
"   .........   ...      ..+   ...      ..;      ",
"   >>>>>>>>>   >>>      >>,   >>>      >>,      ",
"                                                ",
"                                                ",
"                                                ",
"                                                ",
"                                                ",
"                                                ",
"                                                ",
"                                                ",
"                                                ",
"                                                ",
"                                                ",
"                                                ",
"                                                ",
"                                                ",
"                                                ",
"                                                ",
"                                                ",
"                                                ",
"                                                ",
"                                                ",
"                                                ",
"                                                ",
"                                                ",
"                                                ",
"                                                ",
"                                                "};
