/* XPM */
static char * repell_xpm[] = {
"24 24 180 2",
"  	c #662D91",
". 	c #644390",
"+ 	c #672092",
"@ 	c #653790",
"# 	c #663591",
"$ 	c #671592",
"% 	c #662E91",
"& 	c #662491",
"* 	c #662B91",
"= 	c #672291",
"- 	c #662991",
"; 	c #653890",
"> 	c #2AE666",
", 	c #3FCC72",
"' 	c #3ECE71",
") 	c #40CB73",
"! 	c #48BD78",
"~ 	c #53A181",
"{ 	c #61608D",
"] 	c #52A480",
"^ 	c #569783",
"/ 	c #5C7F88",
"( 	c #5B8188",
"_ 	c #5B8288",
": 	c #60698C",
"< 	c #615E8D",
"[ 	c #2DE368",
"} 	c #47BE78",
"| 	c #11F55C",
"1 	c #0CF75B",
"2 	c #04F95A",
"3 	c #2DE467",
"4 	c #662691",
"5 	c #662A91",
"6 	c #60648C",
"7 	c #2FE268",
"8 	c #05F95A",
"9 	c #1AF15F",
"0 	c #19F25F",
"a 	c #14F45D",
"b 	c #1FEE61",
"c 	c #26EA64",
"d 	c #30E069",
"e 	c #644290",
"f 	c #671F92",
"g 	c #43C675",
"h 	c #0EF65C",
"i 	c #0FF65C",
"j 	c #42C774",
"k 	c #672391",
"l 	c #662C91",
"m 	c #671792",
"n 	c #5D7A89",
"o 	c #2AE766",
"p 	c #09F85B",
"q 	c #0AF75B",
"r 	c #663091",
"s 	c #653F90",
"t 	c #39D56E",
"u 	c #12F55D",
"v 	c #4CB27C",
"w 	c #5A8587",
"x 	c #1EEF61",
"y 	c #10F65C",
"z 	c #46BF77",
"A 	c #671692",
"B 	c #653990",
"C 	c #38D66E",
"D 	c #3CD170",
"E 	c #3DCF71",
"F 	c #16F35E",
"G 	c #51A67F",
"H 	c #5A8687",
"I 	c #64498F",
"J 	c #672191",
"K 	c #52A380",
"L 	c #46C077",
"M 	c #579484",
"N 	c #64478F",
"O 	c #634F8F",
"P 	c #3BD370",
"Q 	c #08F85B",
"R 	c #0DF75C",
"S 	c #17F35E",
"T 	c #13F55D",
"U 	c #4CB37C",
"V 	c #11F55D",
"W 	c #06F85A",
"X 	c #663291",
"Y 	c #598A86",
"Z 	c #07F85B",
"` 	c #34DC6B",
" .	c #49BA79",
"..	c #4FAB7E",
"+.	c #671892",
"@.	c #559A82",
"#.	c #1E7F3E",
"$.	c #3AD46F",
"%.	c #61628C",
"&.	c #671C92",
"*.	c #4AB67A",
"=.	c #51A580",
"-.	c #598B86",
";.	c #63508F",
">.	c #40CC73",
",.	c #1E3E29",
"'.	c #4EAD7D",
").	c #670592",
"!.	c #44C376",
"~.	c #671D92",
"{.	c #52A181",
"].	c #27E964",
"^.	c #5B8287",
"/.	c #671192",
"(.	c #5D7B89",
"_.	c #18F35E",
":.	c #1CF060",
"<.	c #653B90",
"[.	c #00FA59",
"}.	c #2CE467",
"|.	c #5E768A",
"1.	c #15F45E",
"2.	c #4AB87A",
"3.	c #4CB47B",
"4.	c #24EB63",
"5.	c #569584",
"6.	c #671992",
"7.	c #588E85",
"8.	c #52A280",
"9.	c #671292",
"0.	c #4CB37B",
"a.	c #1DF060",
"b.	c #5C8088",
"c.	c #680092",
"d.	c #23EC63",
"e.	c #4EAE7D",
"f.	c #671A92",
"g.	c #44C476",
"h.	c #26E964",
"i.	c #5B8487",
"j.	c #598986",
"k.	c #1CF160",
"l.	c #37D96D",
"m.	c #4DAF7D",
"n.	c #4DB17C",
"o.	c #663191",
"p.	c #653E90",
"q.	c #653D90",
"r.	c #5F6B8B",
"s.	c #549B82",
"t.	c #0BF75B",
"u.	c #672192",
"v.	c #41CA73",
"w.	c #07F85A",
"x.	c #47BF77",
"y.	c #4FAC7E",
"z.	c #579184",
"A.	c #671B92",
"B.	c #29E765",
"C.	c #49B979",
"D.	c #41C973",
"E.	c #42C874",
"F.	c #37D86D",
"G.	c #35DB6C",
"H.	c #5B8088",
"I.	c #662391",
"J.	c #644A8F",
"K.	c #44C575",
"L.	c #569484",
"M.	c #62578E",
"N.	c #3ECE72",
"O.	c #15F45D",
"P.	c #1BF160",
"Q.	c #21ED62",
"R.	c #5C7D89",
"S.	c #662791",
"T.	c #625A8D",
"U.	c #5F6E8B",
"V.	c #5C7C89",
"W.	c #539F81",
"                                                ",
"                                                ",
"        . + @ # $ %     & % * = *   - *         ",
"      ; > , ' ) ! ~ * * { ] ^ / ( _ : < [       ",
"      + } | 1 2 3 / 4 5 6 7 8 9 0 a b c d e     ",
"      f g h i i j k l   m n o p i i i q , r     ",
"      s t 8 h i u v 5 l 5 $ w x i i i y z A     ",
"      B C D E p h F G H I J K 0 i i i 1 L %     ",
"        M N O P Q R S T g U S 1 q V h W } X     ",
"      l   5 m Y 0 i i i h | h Z `  .a i ..+.    ",
"    4 -     + @.i i #.#.#.i 1 $.%.&.*.T =.=     ",
"  - w -.$ 5 ;.>.R #.#.,.#.#.u '.).l B !...r     ",
"  ~.{.].^./.(._.i #.,.,.,.#.1 :.n l - <.<.-     ",
"  r U [.}.|...1.i #.#.,.#.#.u 2.B l k %         ",
"  5 3.h Z 4.T h i i #.#.#.i h 5.5 6.7.8.*       ",
"  9.0.V i i i p b T y h i i a.b.c.@.d.e.f.      ",
"    g.p i i i h.i.j.} x k.1 Z l.m.:.2 n.o.      ",
"  B , q i i i q g p.q.r.s.9 R t.u R t.G -       ",
"  u.v.u R w.h i Q x.# l f.y.u i i i F z.A.      ",
"  ; B.e.C.D.E.v.F.G.H.I.J.K.i i i i u L.*       ",
"    X A.~.B   ~.q.N m M.N.q i i i i h z.        ",
"                  % q.v.4.a.O.P.0 1 Q.R.S.      ",
"                    &.r.T.U.( V.( ^ W.0         ",
"                        5 *   - I.  l           "};
