/* XPM */
static char * wall_xpm[] = {
"48 48 5 1",
" 	c #281F33",
".	c #A48EB8",
"+	c #7B5D98",
"@	c #CBC1D7",
"#	c #533E65",
" ...   ......+++++++++   +++++++++++++++   +++  ",
" +++   +++@@@.........   .........+++###   ###  ",
" +++   +++@@@.........   .........+++###   ###  ",
" +++   +++@@@.........   .........+++###   ###  ",
" +++   +++@@@.........   .........+++###   ###  ",
" +++   +++@@@.........   .........+++###   ###  ",
" +++   +++@@@.........   .........+++###   ###  ",
" ++    +++@@@.........   .........+++###     #  ",
" ++    +++@@@.........   .........+++###     #  ",
"       +++@@@.........   .........+++###        ",
"   +   +++@@                        +###   ##   ",
"   +   +++@@                        +###   ##   ",
" +++   +++                           ###   ###  ",
" +++   ++   @.........   .........++   #   ###  ",
" +++   ++   @.........   .........++   #   ###  ",
" +++      @@@.........   .........+++      ###  ",
" +++     +@@@.........   .........+++##    ###  ",
" +++     +@@@.........   .........+++##    ###  ",
" +++   +++@@@.........   .........+++###   ###  ",
" +++   +++@@@.........   .........+++###   ###  ",
" +++   +++@@@.........   .........+++###   ###  ",
" +++   +++@@@.........   .........+++###   ###  ",
" +++   +++@@@@@@@@@@@@   @@@@@@@@@..+###   ###  ",
" +++   +++@@@@@@@@@@@@   @@@@@@@@@..+###   ###  ",
" +++   +++@@@@@@@@@@@@   @@@@@@@@@@@.###   ###  ",
" +++   ++.@@++++++++++   +++++++++++.++#   ###  ",
" +++   ++.@@++++++++++   +++++++++++.++#   ###  ",
" +++   ++@..++++++++++   ++++++++++++..#   ###  ",
" +++   ..@++++++++++++   ++++++++++++..+   ###  ",
" +++   ..@++++++++++++   ++++++++++++..+   ###  ",
" +++   @@.++++++++++++   ++++++++++++++.   ###  ",
" ++    @@+++++++++++++   ++++++++++++++.     #  ",
" ++    @@+++++++++++++   ++++++++++++++.     #  ",
"       ..+++++++++++++   +++++++++++++++        ",
"   +                                       ##   ",
"   +                                       ##   ",
" +++                                       ###  ",
" ++.@@++++   +++++++++++++++++++++   +++++.++#  ",
" ++.@@++++   +++++++++++++++++++++   +++++.++#  ",
" ++@..++++   +++++++++++++++++++++   ++++++..#  ",
" ..@++++++   +++++++++++++++++++++   ++++++..+  ",
" ..@++++++   +++++++++++++++++++++   ++++++..+  ",
" @@.++++++   +++++++++++++++++++++   ++++++++.  ",
" @@+++++++   +++++++++++++++++++++   ++++++++.  ",
" @@+++++++   +++++++++++++++++++++   ++++++++.  ",
" ..+++++++   +++++++++++++++++++++   +++++++++  ",
"                                                ",
"                                                "};
