/* XPM */
static char * exit2_xpm[] = {
"48 48 34 1",
" 	c #1D4C45",
".	c #433221",
"+	c #002121",
"@	c #322111",
"#	c #000000",
"$	c #3E2E1F",
"%	c #3B2B1A",
"&	c #2E2112",
"*	c #675A37",
"=	c #003737",
"-	c #5B452E",
";	c #E0E0E0",
">	c #B0B0B0",
",	c #202020",
"'	c #D0D0D0",
")	c #452E17",
"!	c #656565",
"~	c #343434",
"{	c #070707",
"]	c #969696",
"^	c #303030",
"/	c #563F28",
"(	c #404040",
"_	c #808080",
":	c #725B2E",
"<	c #002E2E",
"[	c #030303",
"}	c #020202",
"|	c #19342E",
"1	c #13322E",
"2	c #2D2217",
"3	c #005757",
"4	c #004B4B",
"5	c #145A55",
" ..++++++@@@++++++###$..@@@@@@@@@@@@@@@..%@@&++*",
"=##############################################-",
"=##############################################-",
"=##;;;;;;;;;###;;;######;;>###;;;##,;;;;;;;;'##)",
"=##;;;;;;;;;###;;;######;;>###;;;##,;;;;;;;;'##)",
"=##;;;;;;;;;###;;;######;;>###;;;##,;;;;;;;;'##)",
"=##;;;!~~~~~###;;;######;;>###;;;##{~~~;;]~~^##/",
"=##;;;(########;;;######;;>###;;;######;;_#####-",
"=##;;;(########;;;######;;>###;;;######;;_#####-",
"=##;;;;;;#########;;;;;;######;;;######;;_#####:",
"=##;;;;;;#########;;;;;;######;;;######;;_#####:",
"=##;;;;;;#########;;;;;;######;;;######;;_#####:",
"=##;;;(###########;;;;;;######;;;######;;_#####<",
"=##;;;(###########;;;;;;######;;;######;;_#####<",
"=##;;;(###########;;;;;;######;;;######;;_#####<",
"=##;;;(########;;;######;;>###;;;######;;_#####)",
"=##;;;(########;;;######;;>###;;;######;;_#####)",
"=##;;;(########;;;######;;>###;;;######;;_#####)",
"=##;;;;;;;;;###;;;######;;>###;;;######;;_#####)",
"=##;;;;;;;;;###;;;######;;>###;;;######;;_#####)",
"=##;;;;;;;;;###;;;######;;>###;;;######;;_#####)",
"=##[[[[[[[[[###[[[######[[}###[[[######[[}#####)",
"=##############################################)",
"=##############################################)",
"=##############################################<",
"=##############################################<",
"=##############################################|",
"=##############################################-",
"=##############################################-",
"=##############################################-",
"=###############################################",
"=###############################################",
"=###############################################",
"=##############################################<",
"=##############################################<",
"=##############################################1",
"=##############################################-",
"=##############################################-",
"=##############################################-",
"=###############################################",
"=###############################################",
"=##############################################2",
"=##############################################-",
"=##############################################-",
"=##############################################-",
"=##############################################-",
"=##############################################-",
"344444444444444444444444444444444444444444444445"};
