/* XPM */
static char * key_xpm[] = {
"48 48 214 2",
"  	c #662D91",
". 	c #422400",
"+ 	c #EFDD93",
"@ 	c #DEC769",
"# 	c #E9C26C",
"$ 	c #ECC26D",
"% 	c #EBC36D",
"& 	c #E8C372",
"* 	c #F7DB82",
"= 	c #E6BF62",
"- 	c #ECAB35",
"; 	c #F5A72C",
"> 	c #F7A72B",
", 	c #F8A82C",
"' 	c #F7A92E",
") 	c #EB9D44",
"! 	c #9B4A2A",
"~ 	c #FCE191",
"{ 	c #FAC447",
"] 	c #EBB342",
"^ 	c #462300",
"/ 	c #452300",
"( 	c #FFC258",
"_ 	c #EC923B",
": 	c #D97C40",
"< 	c #81734C",
"[ 	c #F2CE78",
"} 	c #FAC449",
"| 	c #E0A441",
"1 	c #543611",
"2 	c #4E4325",
"3 	c #FDC556",
"4 	c #FDAC42",
"5 	c #E8804A",
"6 	c #7E6B30",
"7 	c #F6C34D",
"8 	c #D3A247",
"9 	c #563814",
"0 	c #634D1B",
"a 	c #BA8A42",
"b 	c #FFAC45",
"c 	c #BA7740",
"d 	c #73704D",
"e 	c #EDC15D",
"f 	c #FAA72E",
"g 	c #CF9E5B",
"h 	c #A08A58",
"i 	c #FFB741",
"j 	c #DC8533",
"k 	c #83814E",
"l 	c #FFD15D",
"m 	c #F6A539",
"n 	c #9F8C64",
"o 	c #FFB952",
"p 	c #EF8730",
"q 	c #878850",
"r 	c #FFD05E",
"s 	c #CD9548",
"t 	c #9B6B2B",
"u 	c #E98C2C",
"v 	c #878751",
"w 	c #FFD05B",
"x 	c #D19848",
"y 	c #9C6826",
"z 	c #EF8D31",
"A 	c #888653",
"B 	c #FFD057",
"C 	c #D49744",
"D 	c #9D6824",
"E 	c #F08C33",
"F 	c #FFD254",
"G 	c #D09036",
"H 	c #946215",
"I 	c #F48A34",
"J 	c #88855C",
"K 	c #FFD169",
"L 	c #F5A430",
"M 	c #C59856",
"N 	c #9A854E",
"O 	c #FFB945",
"P 	c #EB8E38",
"Q 	c #886C2C",
"R 	c #FCBD45",
"S 	c #CD994B",
"T 	c #A48C4C",
"U 	c #FDB94B",
"V 	c #C38A3B",
"W 	c #807441",
"X 	c #FDD772",
"Y 	c #F9BD40",
"Z 	c #DEA146",
"` 	c #FFD066",
" .	c #FFB84B",
"..	c #F28749",
"+.	c #7C7644",
"@.	c #FFDE70",
"#.	c #FDC242",
"$.	c #EEAA47",
"%.	c #F2CB65",
"&.	c #F3A035",
"*.	c #E48034",
"=.	c #884031",
"-.	c #6D693B",
";.	c #FFE673",
">.	c #F9C249",
",.	c #F4AA36",
"'.	c #FFBB44",
").	c #FEC245",
"!.	c #FAC344",
"~.	c #FCC149",
"{.	c #FDBF50",
"].	c #FFA73E",
"^.	c #A7451E",
"/.	c #874334",
"(.	c #4E4C1D",
"_.	c #FFE079",
":.	c #F8C752",
"<.	c #EE9E2D",
"[.	c #FBA62E",
"}.	c #FAA432",
"|.	c #FAA73C",
"1.	c #AE4410",
"2.	c #C04A22",
"3.	c #FFC952",
"4.	c #FEA632",
"5.	c #B74C0E",
"6.	c #782600",
"7.	c #DDC57C",
"8.	c #FFDD68",
"9.	c #FFD568",
"0.	c #F9B053",
"a.	c #EB9B4E",
"b.	c #964B2E",
"c.	c #41371D",
"d.	c #DDC270",
"e.	c #FEDC6C",
"f.	c #F9CC56",
"g.	c #F9C851",
"h.	c #F5B03A",
"i.	c #F5A42C",
"j.	c #B54016",
"k.	c #AC4830",
"l.	c #5A470C",
"m.	c #F2CC5E",
"n.	c #FFD962",
"o.	c #FCC44B",
"p.	c #FCA52B",
"q.	c #C3590D",
"r.	c #7F2105",
"s.	c #561000",
"t.	c #5F4E32",
"u.	c #F4B848",
"v.	c #F8AD37",
"w.	c #C55C15",
"x.	c #8A280D",
"y.	c #F3BD4A",
"z.	c #FFCC56",
"A.	c #F28D3C",
"B.	c #A93E1C",
"C.	c #F7C854",
"D.	c #FFE474",
"E.	c #F9A435",
"F.	c #BC3F11",
"G.	c #F7C552",
"H.	c #FFE276",
"I.	c #F4A735",
"J.	c #BD3E11",
"K.	c #F7C64F",
"L.	c #FFE373",
"M.	c #F6A635",
"N.	c #F6A634",
"O.	c #F9A532",
"P.	c #BC4411",
"Q.	c #F4A629",
"R.	c #FFA530",
"S.	c #FBC15D",
"T.	c #F3AF4C",
"U.	c #FFE788",
"V.	c #BEAF76",
"W.	c #F1A628",
"X.	c #FDA330",
"Y.	c #A84003",
"Z.	c #FFAC34",
"`.	c #FBA42C",
" +	c #FFC146",
".+	c #FDA436",
"++	c #FFE686",
"@+	c #BAAE74",
"#+	c #FFC244",
"$+	c #FCA42E",
"%+	c #A18A44",
"&+	c #776A48",
"*+	c #F3A528",
"=+	c #FFA82E",
"-+	c #FFE471",
";+	c #FDA62C",
">+	c #E5863E",
",+	c #A5723A",
"'+	c #ADA268",
")+	c #837E56",
"!+	c #F4C656",
"~+	c #FFE56F",
"{+	c #F4A32D",
"]+	c #E47930",
"^+	c #B48D52",
"/+	c #A9884D",
"(+	c #B7AC6C",
"_+	c #7E8050",
":+	c #B59951",
"<+	c #FDE779",
"[+	c #F3A133",
"}+	c #87350F",
"|+	c #C6C58C",
"1+	c #B0874D",
"                                            . . . . . .                                         ",
"                                      . . . + @ # $ % & . .                                     ",
"                                      . * = - ; > , , ' ) ! .                                   ",
"                                    . ~ { ] ^ . . . . / ( _ : .                                 ",
"                                  < [ } | 1             2 3 4 5 .                               ",
"                                  6 7 8 9                 0 a b c .                             ",
"                                d e f g .                   h i j .                             ",
"                                k l m .                     n o p .                             ",
"                                q r s .                       t u .                             ",
"                                v w x .                       y z .                             ",
"                                A B C .                       D E .                             ",
"                                A F G .                       H I .                             ",
"                                J K L M .                   N O P .                             ",
"                                  Q R S .                   T U V .                             ",
"                                  W X Y Z .               `  ....                               ",
"                                    +.@.#.$.. . . . . . %.&.*.=.                                ",
"                                      -.;.>.,.'.).!.~.{.].^./.                                  ",
"                                        (._.:.<.[.}.|.1.2.                                      ",
"                                              3.4.5.6..                                         ",
"                                            7.8.9.0.a.b..                                       ",
"                                        c.d.e.f.g.h.i.j.k..                                     ",
"                                          l.m.n.o.p.q.r.s..                                     ",
"                                            t.u.v.w.x..                                         ",
"                                              y.z.A.B..                                         ",
"                                              C.D.E.F..                                         ",
"                                              G.H.I.J..                                         ",
"                                              K.L.M.J..                                         ",
"                                              K.L.M.J..                                         ",
"                                              K.L.M.J..                                         ",
"                                              K.L.M.J..                                         ",
"                                              K.L.M.J..                                         ",
"                                              K.L.M.J..                                         ",
"                                              K.L.M.J..                                         ",
"                                              K.L.M.J..                                         ",
"                                              K.L.M.J..                                         ",
"                                              K.L.N.J..                                         ",
"                                              K.L.O.P.. . . . .                                 ",
"                                              K.L.Q.R.S.T.U.V..                                 ",
"                                              K.L.W.X.Y.                                        ",
"                                              K.L.W.Z.. . . . .                                 ",
"                                              K.L.W.`. +.+++@+.                                 ",
"                                              K.L.W.`.#+$+%+&+.                                 ",
"                                              K.L.*+=+. . . . .                                 ",
"                                              K.-+*+;+>+,+'+)+.                                 ",
"                                              !+~+{+]+^+/+(+_+.                                 ",
"                                              :+<+[+}+                                          ",
"                                                |+1+                                            ",
"                                                                                                "};
