/* XPM */
static char * 1_xpm[] = {
"32 48 8 1",
" 	c #000000",
".	c #424242",
"+	c #9C9C9C",
"@	c #F4F4F4",
"#	c #FFFFFF",
"$	c #6B6B6B",
"%	c #B8B8B8",
"&	c #7D7D7D",
"                                ",
"                                ",
"                                ",
"                                ",
"                                ",
"                                ",
"          ..++++@@##..          ",
"          ..++++@@##..          ",
"          $$########..          ",
"          $$########..          ",
"        $$##########..          ",
"        $$##########..          ",
"      $$############..          ",
"      $$############..          ",
"      ##$$$$########..          ",
"      ##$$$$########..          ",
"          $$########..          ",
"          $$########..          ",
"          $$########..          ",
"          $$########..          ",
"          $$########..          ",
"          $$########..          ",
"          $$########..          ",
"          $$########..          ",
"          $$########..          ",
"          $$########..          ",
"          $$########..          ",
"          $$########..          ",
"          $$########..          ",
"          $$########..          ",
"          $$########..          ",
"          $$########..          ",
"          $$########..          ",
"          $$########..          ",
"          $$########..          ",
"          $$########..          ",
"          $$########..          ",
"          $$########..          ",
"      %%################++      ",
"      %%################++      ",
"      %%################++      ",
"      %%################++      ",
"      &&++++++++++++++++$$      ",
"      &&++++++++++++++++$$      ",
"                                ",
"                                ",
"                                ",
"                                "};
