/* XPM */
static char * elf_right2_xpm[] = {
"48 48 12 1",
" 	c #662D91",
".	c #650600",
"+	c #823AB2",
"@	c #000000",
"#	c #43280D",
"$	c #00CB51",
"%	c #009800",
"&	c #006506",
"*	c #985128",
"=	c #DC7558",
"-	c #FE87A9",
";	c #2D2443",
"                                    ..++@@      ",
"                                    ..++@@      ",
"                                    ##..@@@@    ",
"                                    ##..@@@@    ",
"          @@@@      @@@@@@@@          ##..@@    ",
"          @@@@      @@@@@@@@          ##..@@    ",
"            @@@@@@@@@@@@@@@@@@          ..@@@@  ",
"            @@@@@@@@@@@@@@@@@@          ..@@@@  ",
"              @@@@@@@@@@@@@@@@@@        ##..@@  ",
"              @@@@@@@@@@@@@@@@@@        ##..@@  ",
"$$%%      %%%%%%&&&&&&&&%%##@@@@        ##..@@@@",
"$$%%      %%%%%%&&&&&&&&%%##@@@@        ##..@@@@",
"  &&%%&&&&%%$$$$%%&&&&%%######@@@@@@@@@@##..@@@@",
"  &&%%&&&&%%$$$$%%&&&&%%######@@@@@@@@@@##..@@@@",
"  &&&&&&%%$$%%%%$$$$&&&&##**==**==--**--##..==@@",
"  &&&&&&%%$$%%%%$$$$&&&&##**==**==--**--##..==@@",
"  &&%%&&%%&&%%%%&&######&&****====****----====@@",
"  &&%%&&%%&&%%%%&&######&&****====****----====@@",
"    &&%%&&%%&&&&&&##;;##&&##@@******@@**##====@@",
"    &&%%&&%%&&&&&&##;;##&&##@@******@@**##====@@",
"      &&%%&&&&&&####==&&&&@@@@@@@@      ##..@@@@",
"      &&%%&&&&&&####==&&&&@@@@@@@@      ##..@@@@",
"      &&&&&&&&&&##**--&&%%@@@@@@        ##..@@  ",
"      &&&&&&&&&&##**--&&%%@@@@@@        ##..@@  ",
"    &&&&%%&&&&&&####**&&&&@@@@          ##..@@  ",
"    &&&&%%&&&&&&####**&&&&@@@@          ##..@@  ",
"    &&%%%%%%&&&&&&&&&&%%@@@@@@          ..@@@@  ",
"    &&%%%%%%&&&&&&&&&&%%@@@@@@          ..@@@@  ",
"    &&%%&&&&&&%%%%&&%%&&##@@@@@@      ##..@@    ",
"    &&%%&&&&&&%%%%&&%%&&##@@@@@@      ##..@@    ",
"    &&&&====&&&&%%%%&&####**@@@@@@@@  ..@@@@    ",
"    &&&&====&&&&%%%%&&####**@@@@@@@@  ..@@@@    ",
"    &&========&&&&&&####****@@@@@@@@##..@@      ",
"    &&========&&&&&&####****@@@@@@@@##..@@      ",
"      ======**&&&&&&##########&&  @@..@@@@      ",
"      ======**&&&&&&##########&&  @@..@@@@      ",
"        ======----@@@@@@####&&&&  ##..@@        ",
"        ======----@@@@@@####&&&&  ##..@@        ",
"      ##**##======@@@@@@&&&&&&                  ",
"      ##**##======@@@@@@&&&&&&                  ",
"  %%######**####@@@@@@@@                        ",
"  %%######**####@@@@@@@@                        ",
"  %%&&####&&&&@@@@                              ",
"  %%&&####&&&&@@@@                              ",
"    &&&&&&&&&&                                  ",
"    &&&&&&&&&&                                  ",
"                                                ",
"                                                "};
