/* XPM */
static char * ghost_right_xpm[] = {
"48 48 52 1",
" 	c #662D91",
".	c #A8A8B4",
"+	c #D2D2D2",
"@	c #E1E1E1",
"#	c #8C89AA",
"$	c #FFFFFF",
"%	c #73737B",
"&	c #A0A0AC",
"*	c #C3C3C7",
"=	c #30246C",
"-	c #808089",
";	c #A3A3AF",
">	c #C7C7CA",
",	c #DCDCDC",
"'	c #A2A2AE",
")	c #D9D9DA",
"!	c #DFDFDF",
"~	c #E0E0E0",
"{	c #C5C5C5",
"]	c #DADADB",
"^	c #F8F8F8",
"/	c #FBFBFB",
"(	c #CFCBCF",
"_	c #D5D5D5",
":	c #E7E7E7",
"<	c #F9F9F9",
"[	c #FAFAFA",
"}	c #DEDEDE",
"|	c #F4F4F4",
"1	c #8C8C96",
"2	c #CECECF",
"3	c #DDDDDD",
"4	c #F3F3F3",
"5	c #E9E9E9",
"6	c #9999A4",
"7	c #BCBCC2",
"8	c #DCDCDD",
"9	c #BFBFBF",
"0	c #F7F7F7",
"a	c #ECECEC",
"b	c #C4C2C4",
"c	c #C7C5C7",
"d	c #CFCFD0",
"e	c #D3D3D3",
"f	c #D2D0D2",
"g	c #BCBCBD",
"h	c #F6F6F7",
"i	c #FDFDFD",
"j	c #E3E3E3",
"k	c #9C9AA7",
"l	c #EFEFF2",
"m	c #B9B9B9",
"                                                ",
"                                                ",
"                                                ",
"                                                ",
"                                                ",
"                                                ",
"                              ....++++++@@@@@@@@",
"                              ....++++++@@@@@@@@",
"                        ##....++@@$$$$$$$$$$$$  ",
"                        ##....++@@$$$$$$$$$$$$  ",
"                      %%&&**++@@========@@====  ",
"                      %%&&**++@@========@@====  ",
"                    --;;>>,,@@==        ==      ",
"                    --;;>>,,@@==        ==      ",
"                  ''))!!~~@@@@                  ",
"                  ''))!!~~@@@@                  ",
"                {{]]^^////////((                ",
"                {{]]^^////////((                ",
"                __@@:://$$$$$$<<                ",
"                __@@:://$$$$$$<<                ",
"                ++@@@@[[$$$$$$$$                ",
"                ++@@@@[[$$$$$$$$                ",
"==              ..++++}}@@||$$$$                ",
"==              ..++++}}@@||$$$$                ",
"11==          1111..22++33@@@@$$                ",
"11==          1111..22++33@@@@$$                ",
"1111========111111++++++44$$$$==                ",
"1111========111111++++++44$$$$==                ",
"  11111111111111..++//$$55====                  ",
"  11111111111111..++//$$55====                  ",
"  ..6611111111....++~~[[55==                    ",
"  ..6611111111....++~~[[55==                    ",
"    77..........++..88[[55==                    ",
"    77..........++..88[[55==                    ",
"        ++++++++@@==9900$$aa@@                  ",
"        ++++++++@@==9900$$aa@@                  ",
"        bbccddeeff  gghhiiaajj                  ",
"        bbccddeeff  gghhiiaajj                  ",
"            ..@@    kkll55||$$$$$$$$$$$$$$@@@@  ",
"            ..@@    kkll55||$$$$$$$$$$$$$$@@@@  ",
"                      mm@@@@@@++++++$$@@        ",
"                      mm@@@@@@++++++$$@@        ",
"                                                ",
"                                                ",
"                                                ",
"                                                ",
"                                                ",
"                                                "};
