/* XPM */
static char * green_steps_xpm[] = {
"48 48 95 2",
"  	c #000000",
". 	c #000602",
"+ 	c #000201",
"@ 	c #001004",
"# 	c #00340D",
"$ 	c #005E18",
"% 	c #00701D",
"& 	c #005A17",
"* 	c #004A13",
"= 	c #00280A",
"- 	c #000C03",
"; 	c #00380E",
"> 	c #005415",
", 	c #006E1C",
"' 	c #009827",
") 	c #00D035",
"! 	c #00FF41",
"~ 	c #13FF4F",
"{ 	c #1BFF55",
"] 	c #0BFF49",
"^ 	c #00CC34",
"/ 	c #003E10",
"( 	c #002D0C",
"_ 	c #00BC30",
": 	c #07FF46",
"< 	c #1DFF57",
"[ 	c #2BFF61",
"} 	c #35FF68",
"| 	c #37FF6A",
"1 	c #39FF6B",
"2 	c #31FF66",
"3 	c #008622",
"4 	c #0FFF4C",
"5 	c #29FF60",
"6 	c #1FFF58",
"7 	c #00781F",
"8 	c #00B62E",
"9 	c #00D837",
"0 	c #00B82F",
"a 	c #008021",
"b 	c #00661A",
"c 	c #00A82B",
"d 	c #00F23E",
"e 	c #00F03D",
"f 	c #00E23A",
"g 	c #00CE35",
"h 	c #001C07",
"i 	c #001606",
"j 	c #000E04",
"k 	c #001305",
"l 	c #00330D",
"m 	c #002C0B",
"n 	c #000802",
"o 	c #000100",
"p 	c #000601",
"q 	c #000903",
"r 	c #000F04",
"s 	c #001B07",
"t 	c #001706",
"u 	c #004211",
"v 	c #00791F",
"w 	c #009225",
"x 	c #008121",
"y 	c #005716",
"z 	c #000401",
"A 	c #006119",
"B 	c #00D937",
"C 	c #00E139",
"D 	c #00BE31",
"E 	c #00A52A",
"F 	c #00BA2F",
"G 	c #00F43E",
"H 	c #25FF5D",
"I 	c #11FF4E",
"J 	c #009426",
"K 	c #2FFF64",
"L 	c #33FF67",
"M 	c #00C432",
"N 	c #008E24",
"O 	c #00F83F",
"P 	c #27FF5E",
"Q 	c #23FF5B",
"R 	c #15FF51",
"S 	c #007C20",
"T 	c #006018",
"U 	c #004812",
"V 	c #003C0F",
"W 	c #00A229",
"X 	c #00D436",
"Y 	c #00B02D",
"Z 	c #009626",
"` 	c #004E14",
" .	c #001205",
"..	c #001405",
"+.	c #000301",
"                                                                                                ",
"                                                                                                ",
"                                                                                                ",
"                                                                                                ",
"                                                                                                ",
"                                                                                                ",
"                                                                                                ",
"                                                                                                ",
"                                                                                                ",
"                                                                                                ",
"                                        . . + +                                                 ",
"                                        . . + +                                                 ",
"                            @ @ # # $ $ % % & & * * = = + +                                     ",
"                            @ @ # # $ $ % % & & * * = = + +                                     ",
"            - - ; ; > > , , ' ' ) ) ! ! ~ ~ { { ] ] ^ ^ / /                                     ",
"            - - ; ; > > , , ' ' ) ) ! ! ~ ~ { { ] ] ^ ^ / /                                     ",
"        ( ( _ _ : : ~ ~ < < [ [ } } | | 1 1 1 1 1 1 2 2 3 3                                     ",
"        ( ( _ _ : : ~ ~ < < [ [ } } | | 1 1 1 1 1 1 2 2 3 3                                     ",
"        > > 4 4 1 1 1 1 } } 5 5 5 5 2 2 } } [ [ 2 2 6 6 7 7                                     ",
"        > > 4 4 1 1 1 1 } } 5 5 5 5 2 2 } } [ [ 2 2 6 6 7 7                                     ",
"        = = 8 8 9 9 0 0 a a b b c c d d e e f f g g % % - -                                     ",
"        = = 8 8 9 9 0 0 a a b b c c d d e e f f g g % % - -                                     ",
"        + + + + h h i i     + + j j     k k l l m m n n                                         ",
"        + + + + h h i i     + + j j     k k l l m m n n                                         ",
"                                                            o o p p q q                         ",
"                                                            o o p p q q                         ",
"                                    + + r r s s i i r r t t u u v v w w x x y y h h             ",
"                                    + + r r s s i i r r t t u u v v w w x x y y h h             ",
"                                z z A A B B C C D D E E F F G G 6 6 [ [ H H I I J J             ",
"                                z z A A B B C C D D E E F F G G 6 6 [ [ H H I I J J             ",
"                                j j g g 1 1 1 1 1 1 K K | | 1 1 1 1 | | L L } } M M             ",
"                                j j g g 1 1 1 1 1 1 K K | | 1 1 1 1 | | L L } } M M             ",
"                                + + N N O O I I H H P P Q Q K K 1 1 } } 2 2 R R S S             ",
"                                + + N N O O I I H H P P Q Q K K 1 1 } } 2 2 R R S S             ",
"                                    n n / / T T U U V V W W G G X X Y Y Z Z ` ` z z             ",
"                                    n n / / T T U U V V W W G G X X Y Y Z Z ` ` z z             ",
"                                                    + + . .          . .....z z                 ",
"                                                    + + . .          . .....z z                 ",
"                                                                                                ",
"                                                                                                ",
"                                                                            + + + +             ",
"                                                                            + + + +             ",
"                                                                        + + +.+.+ +             ",
"                                                                        + + +.+.+ +             ",
"                                                                                                ",
"                                                                                                ",
"                                                                                                ",
"                                                                                                "};
