/* XPM */
static char * key_xpm[] = {
"48 48 24 1",
" 	c #662D91",
".	c #422400",
"+	c #946215",
"@	c #FFD254",
"#	c #F9B053",
"$	c #FFDD68",
"%	c #964B2E",
"&	c #FFD962",
"*	c #FCA52B",
"=	c #7F2105",
"-	c #F3BD4A",
";	c #F28D3C",
">	c #F7C552",
",	c #F4A735",
"'	c #F7C64F",
")	c #F6A635",
"!	c #F6A634",
"~	c #F4A629",
"{	c #FBC15D",
"]	c #FFC244",
"^	c #F1A628",
"/	c #F3A528",
"(	c #B59951",
"_	c #F3A133",
"                  ....++++++++                  ",
"                  ....++++++++                  ",
"                ++++@@@@@@@@++++                ",
"                ++++@@@@@@@@++++                ",
"              ++++@@        @@++++              ",
"              ++++@@        @@++++              ",
"              ++@@..          @@++              ",
"              ++@@..          @@++              ",
"              ++@@..          @@++              ",
"              ++@@..          @@++              ",
"              ++##..          @@++              ",
"              ++##..          @@++              ",
"              ++##++          @@++              ",
"              ++##++          @@++              ",
"                ++##++++....##++                ",
"                ++##++++....##++                ",
"                  ++##@@@@@@##                  ",
"                  ++##@@@@@@##                  ",
"                    ++$$##%%                    ",
"                    ++$$##%%                    ",
"                      &&**==                    ",
"                      &&**==                    ",
"                      --;;..                    ",
"                      --;;..                    ",
"                      >>,,..                    ",
"                      >>,,..                    ",
"                      ''))..                    ",
"                      ''))..                    ",
"                      ''))..                    ",
"                      ''))..                    ",
"                      ''))..                    ",
"                      ''))..                    ",
"                      ''))..                    ",
"                      ''))..                    ",
"                      ''!!..                    ",
"                      ''!!..                    ",
"                      ''~~{{]]..                ",
"                      ''~~{{]]..                ",
"                      ''^^####..                ",
"                      ''^^####..                ",
"                      ''^^====..                ",
"                      ''^^====..                ",
"                      ''//]]]]..                ",
"                      ''//]]]]..                ",
"                      ((__                      ",
"                      ((__                      ",
"                                                ",
"                                                "};
