/* XPM */
static char * red_steps_xpm[] = {
"48 48 82 1",
" 	c #000000",
".	c #060000",
"+	c #020000",
"@	c #100000",
"#	c #340000",
"$	c #5E0000",
"%	c #700000",
"&	c #5A0000",
"*	c #4A0000",
"=	c #280000",
"-	c #0C0000",
";	c #380000",
">	c #540000",
",	c #6E0000",
"'	c #980000",
")	c #D00000",
"!	c #FF0000",
"~	c #FF1313",
"{	c #FF1B1B",
"]	c #FF0B0B",
"^	c #CC0000",
"/	c #3E0000",
"(	c #2C0000",
"_	c #BC0000",
":	c #FF0707",
"<	c #FF1D1D",
"[	c #FF2B2B",
"}	c #FF3535",
"|	c #FF3737",
"1	c #FF3939",
"2	c #FF3131",
"3	c #860000",
"4	c #FF0F0F",
"5	c #FF2929",
"6	c #FF1F1F",
"7	c #780000",
"8	c #B60000",
"9	c #D80000",
"0	c #B80000",
"a	c #800000",
"b	c #660000",
"c	c #A80000",
"d	c #F20000",
"e	c #F00000",
"f	c #E20000",
"g	c #CE0000",
"h	c #1C0000",
"i	c #160000",
"j	c #0E0000",
"k	c #120000",
"l	c #080000",
"m	c #0A0000",
"n	c #1A0000",
"o	c #420000",
"p	c #7A0000",
"q	c #920000",
"r	c #560000",
"s	c #040000",
"t	c #600000",
"u	c #BE0000",
"v	c #A60000",
"w	c #F40000",
"x	c #FF2525",
"y	c #FF1111",
"z	c #940000",
"A	c #FF2F2F",
"B	c #FF3333",
"C	c #C40000",
"D	c #8E0000",
"E	c #F80000",
"F	c #FF2727",
"G	c #FF2323",
"H	c #FF1515",
"I	c #7C0000",
"J	c #480000",
"K	c #3C0000",
"L	c #A20000",
"M	c #D40000",
"N	c #B00000",
"O	c #960000",
"P	c #4E0000",
"Q	c #140000",
"                                                ",
"                                                ",
"                                                ",
"                                                ",
"                                                ",
"                                                ",
"                                                ",
"                                                ",
"                                                ",
"                                                ",
"                    ..++                        ",
"                    ..++                        ",
"              @@##$$%%&&**==++                  ",
"              @@##$$%%&&**==++                  ",
"      --;;>>,,''))!!~~{{]]^^//                  ",
"      --;;>>,,''))!!~~{{]]^^//                  ",
"    ((__::~~<<[[}}||1111112233                  ",
"    ((__::~~<<[[}}||1111112233                  ",
"    >>441111}}555522}}[[226677                  ",
"    >>441111}}555522}}[[226677                  ",
"    ==889900aabbccddeeffgg%%--                  ",
"    ==889900aabbccddeeffgg%%--                  ",
"    ++++hhii  ++jj  kk##((ll                    ",
"    ++++hhii  ++jj  kk##((ll                    ",
"                              ++..mm            ",
"                              ++..mm            ",
"                  ++jjnniijjiiooppqqaarrhh      ",
"                  ++jjnniijjiiooppqqaarrhh      ",
"                sstt99ffuuvv00ww66[[xxyyzz      ",
"                sstt99ffuuvv00ww66[[xxyyzz      ",
"                jjgg111111AA||1111||BB}}CC      ",
"                jjgg111111AA||1111||BB}}CC      ",
"                ++DDEEyyxxFFGGAA11}}22HHII      ",
"                ++DDEEyyxxFFGGAA11}}22HHII      ",
"                  ll//ttJJKKLLwwMMNNOOPPss      ",
"                  ll//ttJJKKLLwwMMNNOOPPss      ",
"                          ++..    kkQQss        ",
"                          ++..    kkQQss        ",
"                                                ",
"                                                ",
"                                      ++++      ",
"                                      ++++      ",
"                                    ++++++      ",
"                                    ++++++      ",
"                                                ",
"                                                ",
"                                                ",
"                                                "};
